<?xml version="1.0" encoding="utf-8"?>
<!-- Generator: Adobe Illustrator 24.0.3, SVG Export Plug-In . SVG Version: 6.00 Build 0)  -->
<!DOCTYPE svg PUBLIC "-//W3C//DTD SVG 1.1//EN" "http://www.w3.org/Graphics/SVG/1.1/DTD/svg11.dtd" [
	<!ENTITY ns_extend "http://ns.adobe.com/Extensibility/1.0/">
	<!ENTITY ns_ai "http://ns.adobe.com/AdobeIllustrator/10.0/">
	<!ENTITY ns_graphs "http://ns.adobe.com/Graphs/1.0/">
	<!ENTITY ns_vars "http://ns.adobe.com/Variables/1.0/">
	<!ENTITY ns_imrep "http://ns.adobe.com/ImageReplacement/1.0/">
	<!ENTITY ns_sfw "http://ns.adobe.com/SaveForWeb/1.0/">
	<!ENTITY ns_custom "http://ns.adobe.com/GenericCustomNamespace/1.0/">
	<!ENTITY ns_adobe_xpath "http://ns.adobe.com/XPath/1.0/">
]>
<svg version="1.1" id="Layer_1" xmlns:x="&ns_extend;" xmlns:i="&ns_ai;" xmlns:graph="&ns_graphs;"
	 xmlns="http://www.w3.org/2000/svg" xmlns:xlink="http://www.w3.org/1999/xlink" x="0px" y="0px" viewBox="0 0 1765.2 1768.8"
	 style="enable-background:new 0 0 1765.2 1768.8;" xml:space="preserve">
<metadata>
	<sfw  xmlns="&ns_sfw;">
		<slices></slices>
		<sliceSourceBounds  bottomLeftOrigin="true" height="1768.8" width="1765.2" x="6.6" y="8.4"></sliceSourceBounds>
	</sfw>
</metadata>
<path d="M117.7,1766.5c-53.1-7.8-95.6-44.1-111.9-95.7L0,1652.5V887.2C0,168,0.3,120.9,4.6,105.4c11-39.6,35-71.1,67.1-88
	C107.4-1.4,41.3,0.1,880.8,0c529.4,0,762.3,0.8,773.2,2.8c38.9,7.1,74.7,33.8,93.7,69.9c18.8,35.8,17.5-26.8,17.5,812
	c0,529.4-0.8,762.3-2.8,773.2c-10,55.1-59.1,101.4-115.1,108.6C1623.9,1769.5,137.9,1769.5,117.7,1766.5L117.7,1766.5z
	 M864.6,1471.1c1-1-19.7-23.4-46.1-49.8l-47.9-48h-53.1c-29.2,0-53.1,1-53.1,2.3c0,1.3-4.5,7-10,12.6c-18,18.6-45.1,20.9-66.4,5.7
	c-14.1-10.1-22.2-33.3-17.6-50.8c10.8-41,61.8-51,88.5-17.4l8.6,10.8h30.1c22.8,0,29.9-0.8,29.3-3.3c-0.5-1.8-26.4-28.5-57.7-59.3
	l-56.8-56l-11.8,1.8c-53.8,8.1-81.1-59.7-36.4-90.3c21.1-14.4,54.1-7.7,68.4,13.9c6,9.1,7,13.4,7,29.8v19.2l56.3,56.4
	c31,31,57.8,56.4,59.6,56.4c2.5,0,3.3-7.6,3.3-29.6v-29.6l-11.4-9.5c-20.2-16.9-25.4-39.1-14.5-61.7c9.5-19.7,32.3-30.2,55.9-25.7
	c18.7,3.5,37.9,28,38.1,48.5c0.1,12.8-9.2,30.2-21.1,39.7l-10.3,8.1v103.2l36.2,36.1c19.9,19.9,37,35.3,38,34.3c1-1,1.8-59,1.8-129
	v-127.1l-36-36.5c-19.8-20.1-54.5-54.1-77.2-75.6l-41.1-39.1h-94.8l-12.6,13c-14.3,14.8-22,18.4-38.6,18.4c-15.6,0-26.9-5.1-37-16.6
	c-7.2-8.2-13.8-23.5-13.8-31.9s6.6-23.7,13.8-31.9c10.2-11.6,21.4-16.6,37.4-16.6c16.1,0,28.2,6.1,39.6,20l9.4,11.4h27
	c17.6,0,27.7-1.1,28.9-3c1.1-1.8-18.2-22.9-49.6-54l-51.5-51l0-56.7c0-31.2-0.9-58-2-59.5c-1.1-1.5-5.8-5.4-10.5-8.7
	c-11.9-8.3-18.9-23.3-18.9-40.2c0-39.2,43.4-61.8,76.6-40c26.9,17.7,27.2,63.4,0.6,80.5c-5,3.2-9.8,8.3-10.6,11.4
	c-0.8,3-1.1,25.6-0.6,50.3l0.8,44.8l48.5,47c26.7,25.9,49.4,46.5,50.5,45.9c1.1-0.6,2-14.4,2-30.6v-29.4l-12.1-10.1
	c-19.7-16.4-24.8-38.5-14-60.7c19.4-40,80-33.4,91.9,10c5.3,19.4-4.3,43.5-21.3,53.6l-7.7,4.6v105l58.3,58.3
	c32.1,32.1,59.8,58.3,61.6,58.3c2.6,0,3.3-37.1,3.3-180.2V743.1l-35.9-34.5L799.8,674l-17.2,0.4c-14.4,0.4-19.2-0.7-29-6.5
	c-30.8-18.1-31.9-63.1-2.1-82.8c14.6-9.7,37.9-10.2,52.5-1.1c18.5,11.5,27.5,31.5,23,51.5l-2.3,10.4l31.8,32.2
	c17.5,17.7,33.1,32.2,34.6,32.2c1.5,0,16.8-14,33.9-31.2l31.1-31.2l-1.8-12.2c-4.5-30,19.2-59,48.3-59c11.8,0,28.2,7.6,37.2,17.2
	c31.6,33.8,0.3,87.8-46.8,80.7l-11.9-1.8l-35.1,35l-35.1,35v256.2c0,140.9,0.9,256.2,2.1,256.2c1.1,0,20-18.1,41.9-40.2l39.9-40.2
	v-104.7l-12.1-10.1c-14-11.7-19.4-22.7-19.4-39.5c0-15.9,5-27.1,16.7-37.4c17.4-15.3,46.1-15.4,63.3-0.2
	c24.9,21.9,24.4,52.8-1.3,76.1l-13.1,11.9l0,29.8c0,16.4,1.2,31.6,2.5,33.7c2,3.1,11.8-5.4,48.4-42l46-46v-86.1l-36-35.9l-36-35.9
	l-12.3,1.4c-17.8,2.1-29.8-1-40.3-10.2c-22.4-19.7-24.7-47.7-5.6-69.4c20.8-23.7,57.7-22,77.1,3.5c6.6,8.6,7.4,11.8,7.5,30.2
	l0.1,20.5l19.1,21c10.5,11.6,20.1,20.3,21.5,19.5c1.4-0.9,2.4-32.9,2.4-74.9v-73.4l-11.6-10.6c-19.1-17.4-24.3-38-14.9-58.7
	c7.6-16.8,27.4-30,44.9-30s37.2,13.2,44.9,30c9.3,20.4,3.6,43.3-14.4,58.2l-9.6,7.9l0.7,77.1l0.7,77.1l21.6-21.1l21.6-21.1
	l-1.6-13.6c-5.1-42.9,40.8-72.9,75.7-49.4c44.1,29.7,17.7,96.7-35.4,89.6l-13.3-1.8l-34.9,34.8l-34.9,34.8v99.4l-48.5,48.7
	c-26.7,26.8-48.5,50.2-48.5,51.9c0,2.4,16.8,3.2,70.2,3.2h70.2l10.1-12.1c11.7-14,22.7-19.4,39.5-19.4c20.6,0,41.4,14.9,47.2,33.9
	c12.7,41.6-31.2,78.7-69.9,58.9c-3.8-1.9-11-8.3-16-14.1l-9-10.6H1022l-56.9,57.1l-56.9,57.1v51.5c0,34.9,0.9,52.1,2.9,53.3
	c1.7,1,20.1-15.3,43.9-39.2l41-41h118.3l8.7-10.8c23.8-29.6,68.1-26,84,6.9c15.1,31.2-4.3,67.1-38.5,71.1
	c-17.2,2-33.7-5.1-45.5-19.7l-8.7-10.8h-102.7l-47,47.1c-32.4,32.4-45.8,47.5-43.2,48.5c2.1,0.8,114.4,1.2,249.5,0.8l245.6-0.7
	l7.3-7.3l7.3-7.3l1.3-249.6l1.3-249.6l76-1.3c82.2-1.4,84.5-1.8,91.9-16c8.4-16.3,6.8-18.4-85.6-111.2l-86.2-86.6V625.5
	c0-125.2-0.3-128.6-13-135.3c-3.1-1.6-30.7-2.7-70.8-2.7c-72.6,0-75.7,0.6-81.1,16.3c-1.5,4.4-2.8,21.5-2.8,37.8
	c0,16.4-0.9,29.8-1.9,29.8s-82.2-80.2-180.2-178.2L901.5,214.9h-23.5L526.2,566.8C184.5,908.4,174.3,918.9,174.3,928.4
	c0,7.1,2.1,12.1,7.6,18.3l7.6,8.6l76.8,0.8c56.4,0.6,77.3,1.6,78.8,3.9c1.1,1.7,2,113.8,2,249.1c0,162.9,0.9,247.6,2.7,250.9
	c7,13.2-1,12.8,264.9,12.9C751.2,1472.9,863.6,1472.2,864.6,1471.1L864.6,1471.1z M631.1,1371.4c2.3-2.5,4.9-7.8,5.9-11.7
	c1.4-5.8,0.3-8.7-6.1-15.1c-9.3-9.3-15.6-9.9-25-2.5c-13.9,10.9-5.2,33.9,12.8,33.9C623.2,1376,628.8,1374,631.1,1371.4z
	 M1175.3,1369.2c5.6-4.7,8.1-9.1,8.1-14.4c0-16.9-20.4-24.1-32.9-11.7c-9.9,9.9-7.4,25.3,4.9,30.2
	C1164.3,1377,1166.7,1376.5,1175.3,1369.2L1175.3,1369.2z M789.4,1213.1c3.6-3.4,6.1-8.7,6.1-13.2c0-9.5-10.5-20.4-19.7-20.4
	c-7.5,0-19.7,10.5-19.7,17.1c0,5.6,5.1,14.9,10.3,18.9C772.9,1220.3,782.7,1219.3,789.4,1213.1L789.4,1213.1z M1269.1,1192.1
	c3.9-3.6,6.1-8.7,6.1-14c0-17.4-21.4-24.4-33.2-10.7c-7.6,8.8-7.7,14.6-0.7,23.5C1248.1,1199.6,1260.5,1200.1,1269.1,1192.1z
	 M604.3,1187.5c4.2-4.2,7.7-10.2,7.7-13.3c0-7.3-13.7-21-21-21c-3.1,0-9.1,3.4-13.3,7.7s-7.7,10.2-7.7,13.3s3.4,9.1,7.7,13.3
	c4.2,4.2,10.2,7.7,13.3,7.7S600.1,1191.7,604.3,1187.5z M1021.8,1037.7c4.8-3.8,6.9-7.9,6.9-13.6c0-18.5-22.8-27.5-33.9-13.4
	c-7.4,9.4-6.8,15.7,2.2,24.7C1006.2,1044.5,1012.4,1045.1,1021.8,1037.7z M580.5,1011.7c7.8-4.2,11.2-17.5,6.7-26.2
	c-6.1-11.9-23-14.7-31.5-5.3C541.3,996.1,561.6,1021.8,580.5,1011.7L580.5,1011.7z M1040.1,859.4c6.2-2.8,12.2-12.2,12.2-19.1
	c0-1.9-2.4-6.6-5.4-10.4c-6.8-8.7-20.8-9.5-28.6-1.7c-7.8,7.8-7,21.8,1.7,28.6C1027.8,863.1,1031.2,863.5,1040.1,859.4z
	 M1268.7,855.9c18.2-18.2-8.1-44.8-26.8-27.2c-3.6,3.4-6.1,8.7-6.1,13.2c0,9.5,10.5,20.4,19.7,20.4
	C1259.2,862.3,1265.2,859.4,1268.7,855.9L1268.7,855.9z M738.6,851.7c9-7.1,10.8-13.8,6-23.1c-8-15.4-27.6-15.2-35.1,0.3
	c-4.3,8.9,0.1,19.7,10,24.7C728.4,858.2,730.8,857.9,738.6,851.7L738.6,851.7z M1157.6,721.7c3-2.7,4.8-8,4.8-14.2
	c0-17.9-21.3-26.8-33.9-14.2c-5.4,5.4-4.8,20.9,1,27.4C1135.5,727.3,1150.8,727.8,1157.6,721.7z M603.6,719.3
	c13-9.1,2.7-35.2-13.8-35.2c-3.7,0-9.7,2.9-13.2,6.4c-3.5,3.5-6.4,9.5-6.4,13.2C570.1,719,590.4,728.5,603.6,719.3L603.6,719.3z
	 M792,639c3.6-3.4,6.1-8.7,6.1-13.2c0-9.5-10.5-20.4-19.7-20.4c-3.7,0-9.7,2.9-13.2,6.4C747.1,630,773.3,656.6,792,639L792,639z
	 M1015.2,639.4c12-11.2,3.3-34-13.1-34c-12.4,0-19.5,9.8-17.9,24.9C985.6,644.2,1004.1,649.7,1015.2,639.4L1015.2,639.4z"/>
</svg>
